<?plantuml 1.2026.2?><svg xmlns="http://www.w3.org/2000/svg" xmlns:xlink="http://www.w3.org/1999/xlink" contentStyleType="text/css" data-diagram-type="DESCRIPTION" height="599px" preserveAspectRatio="none" style="width:1031px;height:599px;background:#FFFFFF;" version="1.1" viewBox="0 0 1031 599" width="1031px" zoomAndPan="magnify"><title>Pig Game &#8212; Component Architecture</title><defs/><g><g class="title" data-source-line="1"><text fill="#000000" font-family="sans-serif" font-size="14" font-weight="bold" lengthAdjust="spacing" textLength="266.8887" x="375.0626" y="23.5352">Pig Game &#8212; Component Architecture</text></g><!--cluster src/--><g class="cluster" data-qualified-name="src." data-source-line="8" id="ent0003"><path d="M189.68,43.4883 L220.3275,43.4883 A3.75,3.75 0 0 1 222.8275,45.9883 L229.8275,65.9766 L646.68,65.9766 A2.5,2.5 0 0 1 649.18,68.4766 L649.18,450.2483 A2.5,2.5 0 0 1 646.68,452.7483 L189.68,452.7483 A2.5,2.5 0 0 1 187.18,450.2483 L187.18,45.9883 A2.5,2.5 0 0 1 189.68,43.4883" fill="none" style="stroke:#000000;stroke-width:1.5;"/><line style="stroke:#000000;stroke-width:1.5;" x1="187.18" x2="229.8275" y1="65.9766" y2="65.9766"/><text fill="#000000" font-family="sans-serif" font-size="14" font-weight="bold" lengthAdjust="spacing" textLength="29.6475" x="191.18" y="59.0234">src/</text></g><!--entity main--><g class="entity" data-qualified-name="src..main" data-source-line="9" id="ent0004"><rect fill="#F1F1F1" height="52.9766" rx="2.5" ry="2.5" style="stroke:#181818;stroke-width:0.5;" width="69.3623" x="428.5" y="78.4883"/><text fill="#000000" font-family="sans-serif" font-size="14" lengthAdjust="spacing" textLength="49.3623" x="438.5" y="102.0234">main.js</text><text fill="#000000" font-family="sans-serif" font-size="14" lengthAdjust="spacing" textLength="43.873" x="438.5" y="118.5117">(entry)</text></g><!--entity game--><g class="entity" data-qualified-name="src..game" data-source-line="10" id="ent0005"><rect fill="#F1F1F1" height="52.9766" rx="2.5" ry="2.5" style="stroke:#181818;stroke-width:0.5;" width="159.3301" x="283.51" y="225.2483"/><text fill="#000000" font-family="sans-serif" font-size="14" lengthAdjust="spacing" textLength="59.2334" x="293.51" y="248.7834">PigGame</text><text fill="#000000" font-family="sans-serif" font-size="14" lengthAdjust="spacing" textLength="139.3301" x="293.51" y="265.2717">(pure state machine)</text></g><!--entity ui--><g class="entity" data-qualified-name="src..ui" data-source-line="11" id="ent0006"><rect fill="#F1F1F1" height="52.9766" rx="2.5" ry="2.5" style="stroke:#181818;stroke-width:0.5;" width="190.4609" x="310.95" y="383.7683"/><text fill="#000000" font-family="sans-serif" font-size="14" lengthAdjust="spacing" textLength="28.5605" x="320.95" y="407.3034">ui.js</text><text fill="#000000" font-family="sans-serif" font-size="14" lengthAdjust="spacing" textLength="170.4609" x="320.95" y="423.7917">(DOM bindings + render)</text></g><!--entity Player--><g class="entity" data-qualified-name="Player" data-source-line="6" id="ent0002"><ellipse cx="26.1797" cy="380.5183" fill="#F1F1F1" rx="8" ry="8" style="stroke:#181818;stroke-width:0.5;"/><path d="M26.1797,388.5183 L26.1797,415.5183 M13.1797,396.5183 L39.1797,396.5183 M26.1797,415.5183 L13.1797,430.5183 M26.1797,415.5183 L39.1797,430.5183" fill="none" style="stroke:#181818;stroke-width:0.5;"/><text fill="#000000" font-family="sans-serif" font-size="14" lengthAdjust="spacing" textLength="40.3594" x="6" y="445.5534">Player</text></g><!--entity dom--><g class="entity" data-qualified-name="dom" data-source-line="14" id="ent0007"><path d="M311.789,534.7957 C315.3804,527.2411 320.5916,527.8673 325.138,533.8542 C328.5906,527.6145 334.9689,526.8238 339.4272,532.6646 C344.3,525.6085 351.797,526.8244 354.8036,534.5993 C359.7506,527.2778 363.966,527.8012 368.6499,534.8528 C374.5191,536.2437 376.0678,541.2144 372.4753,545.8858 C378.9431,547.9427 381.4234,554.0655 375.1732,558.7828 C379.9973,563.2736 377.5314,567.6237 372.3376,569.452 C376.3926,575.2427 375.1052,578.9179 368.7426,581.6344 C366.1445,588.7999 359.8759,590.0947 355.1058,583.8417 C351.0737,590.3525 344.186,592.5244 339.7431,584.2691 C335.2223,590.2348 329.7657,590.3083 326.3664,583.1279 C321.2748,590.3375 315.0995,590.234 311.4121,581.7868 C304.2503,580.0718 301.5679,576.6885 306.348,569.8901 C299.5284,568.8193 298.7784,563.0361 303.0204,558.6813 C298.4809,553.2686 299.2851,549.1014 305.9132,546.2973 C301.8286,540.1995 303.8818,534.7671 311.789,534.7957" fill="#F1F1F1" style="stroke:#181818;stroke-width:0.5;"/><text fill="#000000" font-family="sans-serif" font-size="14" lengthAdjust="spacing" textLength="33.4209" x="317.52" y="554.0334">DOM</text><text fill="#000000" font-family="sans-serif" font-size="14" lengthAdjust="spacing" textLength="43.3125" x="317.52" y="570.5217">(#app)</text></g><g class="entity" data-qualified-name="GMN15" data-source-line="26" id="ent0016"><path d="M668.34,208.4583 L668.34,295.011 L1024.0138,295.011 L1024.0138,218.4583 L1014.0138,208.4583 L668.34,208.4583" fill="#FEFFDD" style="stroke:#181818;stroke-width:0.5;"/><path d="M1014.0138,208.4583 L1014.0138,218.4583 L1024.0138,218.4583 L1014.0138,208.4583" fill="#FEFFDD" style="stroke:#181818;stroke-width:1;"/><text fill="#000000" font-family="sans-serif" font-size="13" lengthAdjust="spacing" textLength="38.0288" x="674.34" y="226.0266">Rules:</text><text fill="#000000" font-family="sans-serif" font-size="13" lengthAdjust="spacing" textLength="248.7837" x="674.34" y="241.3372">- dice=1 &#8594; roundScore=0, turn passes</text><text fill="#000000" font-family="sans-serif" font-size="13" lengthAdjust="spacing" textLength="327.209" x="674.34" y="256.6477">- dice=6 after another 6 &#8594; total wiped, turn passes</text><text fill="#000000" font-family="sans-serif" font-size="13" lengthAdjust="spacing" textLength="334.6738" x="674.34" y="271.9583">- hold &#8594; roundScore added to total, win if &gt;= target</text><text fill="#000000" font-family="sans-serif" font-size="13" lengthAdjust="spacing" textLength="193.7368" x="674.34" y="287.2688">- target clamped to [10..1000]</text></g><!--link Player to dom--><g class="link" data-entity-1="ent0002" data-entity-2="ent0007" data-link-type="dependency" data-source-line="16" id="lnk8"><path d="M28.84,448.9583 C31.92,465.4083 38.28,483.6083 51.18,495.4983 C87.43,528.9183 226.7366,545.7639 296.0566,552.3139" fill="none" id="Player-to-dom" style="stroke:#181818;stroke-width:1;"/><polygon fill="#181818" points="302.03,552.8783,293.4462,548.0494,297.0522,552.4079,292.6936,556.0139,302.03,552.8783" style="stroke:#181818;stroke-width:1;"/><text fill="#000000" font-family="sans-serif" font-size="13" lengthAdjust="spacing" textLength="271.1401" x="52.18" y="492.0666">click Roll / Hold / New game / target input</text></g><!--link dom to ui--><g class="link" data-entity-1="ent0007" data-entity-2="ent0006" data-link-type="dependency" data-source-line="17" id="lnk9"><path d="M332.03,525.0783 C330.1,510.4283 330.01,492.9883 336.18,478.4983 C343.05,462.3783 351.3507,452.1819 364.1807,441.0919" fill="none" id="dom-to-ui" style="stroke:#181818;stroke-width:1;"/><polygon fill="#181818" points="368.72,437.1683,359.2953,440.0276,364.9373,440.438,364.5269,446.0799,368.72,437.1683" style="stroke:#181818;stroke-width:1;"/><text fill="#000000" font-family="sans-serif" font-size="13" lengthAdjust="spacing" textLength="92.7012" x="337.18" y="492.0666">event handlers</text></g><!--link ui to dom--><g class="link" data-entity-1="ent0006" data-entity-2="ent0007" data-link-type="dependency" data-source-line="20" id="lnk12"><path d="M425.29,436.9483 C435.6,454.1683 444.34,476.9883 434.18,495.4983 C421.86,517.9583 402.73,530.7806 381.66,540.3806" fill="none" id="ui-to-dom" style="stroke:#181818;stroke-width:1;"/><polygon fill="#181818" points="376.2,542.8683,386.0484,542.7767,380.75,540.7952,382.7315,535.4967,376.2,542.8683" style="stroke:#181818;stroke-width:1;"/><text fill="#000000" font-family="sans-serif" font-size="13" lengthAdjust="spacing" textLength="347.0137" x="439.58" y="492.0666">update scores, current, active/winner classes, dice img</text></g><!--link ui to game--><g class="link" data-entity-1="ent0006" data-entity-2="ent0005" data-link-type="dependency" data-source-line="18" id="lnk10"><path d="M399.07,383.3683 C391.1,354.3583 379.84,313.3738 371.87,284.3738" fill="none" id="ui-to-game" style="stroke:#181818;stroke-width:1;"/><polygon fill="#181818" points="370.28,278.5883,368.808,288.3265,371.605,283.4095,376.522,286.2065,370.28,278.5883" style="stroke:#181818;stroke-width:1;"/><text fill="#000000" font-family="sans-serif" font-size="13" lengthAdjust="spacing" textLength="218.7212" x="388.25" y="338.5866">roll() / hold() / reset() / setTarget()</text></g><!--link game to ui--><g class="link" data-entity-1="ent0005" data-entity-2="ent0006" data-link-type="dependency" data-source-line="19" id="lnk11"><path d="M288.19,278.7083 C256.23,294.1583 229.84,315.8583 247.18,342.0183 C262,364.3683 280.3235,377.0791 305.1335,387.0591" fill="none" id="game-to-ui" style="stroke:#181818;stroke-width:1;"/><polygon fill="#181818" points="310.7,389.2983,303.843,382.2285,306.0612,387.4323,300.8574,389.6505,310.7,389.2983" style="stroke:#181818;stroke-width:1;"/><text fill="#000000" font-family="sans-serif" font-size="13" lengthAdjust="spacing" textLength="126.7183" x="248.18" y="338.5866">subscribe(snapshot)</text></g><!--link main to game--><g class="link" data-entity-1="ent0004" data-entity-2="ent0005" data-link-type="dependency" data-source-line="22" id="lnk13"><path d="M435.7,131.7383 C426.97,140.6783 417.65,151.0783 410.18,161.4583 C395.76,181.5083 385.5013,201.1184 376.9113,219.5784" fill="none" id="main-to-game" style="stroke:#181818;stroke-width:1;"/><polygon fill="#181818" points="374.38,225.0183,381.8036,218.546,376.4895,220.485,374.5504,215.1709,374.38,225.0183" style="stroke:#181818;stroke-width:1;"/><text fill="#000000" font-family="sans-serif" font-size="13" lengthAdjust="spacing" textLength="92.8979" x="411.18" y="175.0266">new PigGame()</text></g><!--link main to ui--><g class="link" data-entity-1="ent0004" data-entity-2="ent0006" data-link-type="dependency" data-source-line="23" id="lnk14"><path d="M488.65,131.7583 C496.02,140.5383 503.36,150.8483 508.18,161.4583 C533.07,216.3083 492.42,248.9183 531.18,295.0183 C558.71,327.7583 640.37,307.4383 615.18,342.0183 C589.08,377.8283 549.4819,393.8446 507.5919,401.9046" fill="none" id="main-to-ui" style="stroke:#181818;stroke-width:1;"/><polygon fill="#181818" points="501.7,403.0383,511.2937,405.2657,506.6099,402.0936,509.7821,397.4098,501.7,403.0383" style="stroke:#181818;stroke-width:1;"/><text fill="#000000" font-family="sans-serif" font-size="13" lengthAdjust="spacing" textLength="118.6187" x="532.18" y="256.8066">mount(root, game)</text></g><!--link game to GMN15--><g class="link" data-entity-1="ent0005" data-entity-2="ent0016" data-link-type="association" data-source-line="26" id="lnk17"><path d="M392.84,225.0083 C416.58,205.5083 451.75,180.7083 487.68,169.9583 C580.19,142.2983 688.53,175.8683 761.7,207.9683" fill="none" id="game-GMN15" style="stroke:#181818;stroke-width:1;stroke-dasharray:7,7;"/></g><?plantuml-src PLBDRXCn4BxxAKRXiYloU-aXKYeXaE02L2stqiF4dkoQU6tBFuqYXCI91q0yOP-4iJTfg_RaMNy__cPcaqw6u4fty147WeVV_-2z6xopP1Ey2xBNYMJAWOI8Usqz1Xn0dXatwSZgm0oqdQ5dbDYZSWTjEzYXYQn6cLo0AuD72a9ub7li22OnoCK4VWg0sm6rdV-8tst3pk7OtW56A9S5v8Gb88EUmq1Cc8X1pcTfP7OC5sRMeyc7hvzXgwtY317USaYhA8pKhCKl8QHnMS64USn-Wzwtam8gDmWnveJPxB9ymngaqN8FryuOMC0dPnGVN-XGN-KoOUWe0NUVaoYAeioQXNHV9jcZLOP257nNe2fRGs2_fcLzpuwr21GfrOhFRzMrQKMbFrh6l8qow2qrqQAFlKljsNSCcxqguudIiTqKP0xSVPe2xq3VquBNOhavQJ36WYij2VJG2L6c_JoVvGvFa-SKZsXDCRXiKnESO-D2RuMmZbyDkkiJkDrv8TVPK5npCQiFRLRmyESlTvwjkYa1Dyify0zcmTSuJyGBm5tYdCYsFPyNLPXSGWC7xKczrfKnlh07L8eKoqRbbAKMz0ukDwUbLU5fVpoImO_iszLoFbyjbyixmNyEbDR-0m00?></g></svg>