<?plantuml 1.2026.2?><svg xmlns="http://www.w3.org/2000/svg" xmlns:xlink="http://www.w3.org/1999/xlink" contentStyleType="text/css" data-diagram-type="DESCRIPTION" height="281px" preserveAspectRatio="none" style="width:352px;height:281px;background:#FFFFFF;" version="1.1" viewBox="0 0 352 281" width="352px" zoomAndPan="magnify"><title>Deployment &#8212; static SPA</title><defs/><g><g class="title" data-source-line="1"><text fill="#000000" font-family="sans-serif" font-size="14" font-weight="bold" lengthAdjust="spacing" textLength="181.1182" x="78.764" y="23.5352">Deployment &#8212; static SPA</text></g><!--cluster host--><g class="cluster" data-qualified-name="host" data-source-line="6" id="ent0003"><polygon fill="none" points="96.92,163.9783,106.92,153.9783,247.92,153.9783,247.92,254.4683,237.92,264.4683,96.92,264.4683,96.92,163.9783" style="stroke:#181818;stroke-width:1;"/><line style="stroke:#181818;stroke-width:1;" x1="237.92" x2="247.92" y1="163.9783" y2="153.9783"/><line style="stroke:#181818;stroke-width:1;" x1="96.92" x2="237.92" y1="163.9783" y2="163.9783"/><line style="stroke:#181818;stroke-width:1;" x1="237.92" x2="237.92" y1="163.9783" y2="264.4683"/><text fill="#000000" font-family="sans-serif" font-size="14" font-weight="bold" lengthAdjust="spacing" textLength="75.9199" x="130.46" y="180.5134">Static host</text></g><!--entity dist--><g class="entity" data-qualified-name="host.dist" data-source-line="7" id="ent0004"><path d="M139.42,193.9783 L180.42,193.9783 A3.75,3.75 0 0 1 182.92,196.4783 L189.92,214.9783 L204.42,214.9783 A2.5,2.5 0 0 1 206.92,217.4783 L206.92,245.9666 A2.5,2.5 0 0 1 204.42,248.4666 L139.42,248.4666 A2.5,2.5 0 0 1 136.92,245.9666 L136.92,196.4783 A2.5,2.5 0 0 1 139.42,193.9783" fill="#F1F1F1" style="stroke:#181818;stroke-width:0.5;"/><line style="stroke:#181818;stroke-width:0.5;" x1="136.92" x2="189.92" y1="214.9783" y2="214.9783"/><text fill="#000000" font-family="sans-serif" font-size="14" lengthAdjust="spacing" textLength="32.5732" x="146.92" y="235.5134">dist/</text></g><!--entity Browser--><g class="entity" data-qualified-name="Browser" data-source-line="5" id="ent0002"><polygon fill="#F1F1F1" points="16,54.4883,26,44.4883,109.833,44.4883,109.833,80.9766,99.833,90.9766,16,90.9766,16,54.4883" style="stroke:#181818;stroke-width:0.5;"/><line style="stroke:#181818;stroke-width:0.5;" x1="99.833" x2="109.833" y1="54.4883" y2="44.4883"/><line style="stroke:#181818;stroke-width:0.5;" x1="16" x2="99.833" y1="54.4883" y2="54.4883"/><line style="stroke:#181818;stroke-width:0.5;" x1="99.833" x2="99.833" y1="54.4883" y2="90.9766"/><text fill="#000000" font-family="sans-serif" font-size="14" lengthAdjust="spacing" textLength="53.833" x="31" y="78.0234">Browser</text></g><!--entity Vite build--><g class="entity" data-qualified-name="Vite build" data-source-line="10" id="ent0005"><rect fill="#F1F1F1" height="46.4883" rx="2.5" ry="2.5" style="stroke:#181818;stroke-width:0.5;" width="105.0713" x="229.38" y="44.4883"/><rect fill="#F1F1F1" height="10" style="stroke:#181818;stroke-width:0.5;" width="15" x="314.4513" y="49.4883"/><rect fill="#F1F1F1" height="2" style="stroke:#181818;stroke-width:0.5;" width="4" x="312.4513" y="51.4883"/><rect fill="#F1F1F1" height="2" style="stroke:#181818;stroke-width:0.5;" width="4" x="312.4513" y="55.4883"/><text fill="#000000" font-family="sans-serif" font-size="14" lengthAdjust="spacing" textLength="65.0713" x="244.38" y="78.0234">Vite build</text></g><!--link Vite build to dist--><g class="link" data-entity-1="ent0005" data-entity-2="ent0004" data-link-type="dependency" data-source-line="10" id="lnk6"><path d="M270.7,91.2483 C263.43,105.1383 253.39,123.0783 242.92,137.9783 C229.14,157.5783 215.6062,194.5479 201.3862,210.1179" fill="none" id="Vite build-to-dist" style="stroke:#181818;stroke-width:1;"/><polygon fill="#181818" points="197.34,214.5483,206.3629,210.6002,200.7119,210.8563,200.4558,205.2053,197.34,214.5483" style="stroke:#181818;stroke-width:1;"/><text fill="#000000" font-family="sans-serif" font-size="13" lengthAdjust="spacing" textLength="90.0161" x="254.63" y="134.5466">npm run build</text></g><!--link Browser to dist--><g class="link" data-entity-1="ent0002" data-entity-2="ent0004" data-link-type="dependency" data-source-line="11" id="lnk7"><path d="M56.5,91.4383 C53.78,105.5683 52.69,123.6983 59.92,137.9783 C75.83,169.3983 104.6673,189.0275 131.1073,202.4175" fill="none" id="Browser-to-dist" style="stroke:#181818;stroke-width:1;"/><polygon fill="#181818" points="136.46,205.1283,130.2381,197.4936,131.9994,202.8693,126.6237,204.6306,136.46,205.1283" style="stroke:#181818;stroke-width:1;"/><text fill="#000000" font-family="sans-serif" font-size="13" lengthAdjust="spacing" textLength="177.8423" x="60.92" y="134.5466">HTML / JS / CSS / dice PNGs</text></g><?plantuml-src JOrD2i8m58JtxnH3zwLx5u8_e8XAeU96N4Jpr62QbBoK8Y9u24_eIRIj2pV33DyC4qsqZ2bNrjzATX7lvmiILJH75Fc8IAx6LIge4d9HsZV6dN5ILfZ8USqO1zy8XpuaHR-yU8a9b7G6Tm9EtceEIBIHc7MeTVGWscrDP1ngO_KUQJhi00PmLObGkvxGx-Q_CD-ibiYmABuoALhLviZ8rpFv0000?></g></svg>