<?plantuml 1.2026.2?><svg xmlns="http://www.w3.org/2000/svg" xmlns:xlink="http://www.w3.org/1999/xlink" contentStyleType="text/css" data-diagram-type="SEQUENCE" height="655px" preserveAspectRatio="none" style="width:719px;height:655px;background:#FFFFFF;" version="1.1" viewBox="0 0 719 655" width="719px" zoomAndPan="magnify"><title>Sequence &#8212; roll dice</title><defs/><g><text fill="#000000" font-family="sans-serif" font-size="14" font-weight="bold" lengthAdjust="spacing" textLength="149.4609" x="286.1104" y="28.5352">Sequence &#8212; roll dice</text><rect fill="none" height="262.084" style="stroke:#000000;stroke-width:1.5;" width="559.4229" x="153.2588" y="223.9082"/><g class="participant-lifeline" data-entity-uid="part1" data-qualified-name="User" id="part1-lifeline"><g><title>User</title><rect fill="#000000" fill-opacity="0.00000" height="455.6367" width="8" x="19.1826" y="118.9766"/><line style="stroke:#181818;stroke-width:0.5;stroke-dasharray:5,5;" x1="23" x2="23" y1="118.9766" y2="574.6133"/></g></g><g class="participant-lifeline" data-entity-uid="part2" data-qualified-name="Btn" id="part2-lifeline"><g><title>.btn-roll</title><rect fill="#000000" fill-opacity="0.00000" height="455.6367" width="8" x="89.8506" y="118.9766"/><line style="stroke:#181818;stroke-width:0.5;stroke-dasharray:5,5;" x1="93.3652" x2="93.3652" y1="118.9766" y2="574.6133"/></g></g><g class="participant-lifeline" data-entity-uid="part3" data-qualified-name="UI" id="part3-lifeline"><g><title>ui.js</title><rect fill="#000000" fill-opacity="0.00000" height="455.6367" width="8" x="180.5391" y="118.9766"/><line style="stroke:#181818;stroke-width:0.5;stroke-dasharray:5,5;" x1="184.2588" x2="184.2588" y1="118.9766" y2="574.6133"/></g></g><g class="participant-lifeline" data-entity-uid="part4" data-qualified-name="Game" id="part4-lifeline"><g><title>PigGame</title><rect fill="#000000" fill-opacity="0.00000" height="455.6367" width="8" x="460.6646" y="118.9766"/><line style="stroke:#181818;stroke-width:0.5;stroke-dasharray:5,5;" x1="464.0479" x2="464.0479" y1="118.9766" y2="574.6133"/></g></g><g class="participant participant-head" data-entity-uid="part1" data-qualified-name="User" id="part1-head"><text fill="#000000" font-family="sans-serif" font-size="14" lengthAdjust="spacing" textLength="30.3652" x="5" y="116.0234">User</text><ellipse cx="23.1826" cy="50.9883" fill="#E2E2F0" rx="8" ry="8" style="stroke:#181818;stroke-width:0.5;"/><path d="M23.1826,58.9883 L23.1826,85.9883 M10.1826,66.9883 L36.1826,66.9883 M23.1826,85.9883 L10.1826,100.9883 M23.1826,85.9883 L36.1826,100.9883" fill="none" style="stroke:#181818;stroke-width:0.5;"/></g><g class="participant participant-tail" data-entity-uid="part1" data-qualified-name="User" id="part1-tail"><text fill="#000000" font-family="sans-serif" font-size="14" lengthAdjust="spacing" textLength="30.3652" x="5" y="587.1484">User</text><ellipse cx="23.1826" cy="598.6016" fill="#E2E2F0" rx="8" ry="8" style="stroke:#181818;stroke-width:0.5;"/><path d="M23.1826,606.6016 L23.1826,633.6016 M10.1826,614.6016 L36.1826,614.6016 M23.1826,633.6016 L10.1826,648.6016 M23.1826,633.6016 L36.1826,648.6016" fill="none" style="stroke:#181818;stroke-width:0.5;"/></g><g class="participant participant-head" data-entity-uid="part2" data-qualified-name="Btn" id="part2-head"><rect fill="#E2E2F0" height="30.4883" rx="2.5" ry="2.5" style="stroke:#181818;stroke-width:0.5;" width="84.9707" x="51.3652" y="87.4883"/><text fill="#000000" font-family="sans-serif" font-size="14" lengthAdjust="spacing" textLength="13.2822" x="58.3652" y="108.0234">1.</text><text fill="#000000" font-family="sans-serif" font-size="14" lengthAdjust="spacing" textLength="53.2588" x="76.0771" y="108.0234">btn-roll</text></g><g class="participant participant-tail" data-entity-uid="part2" data-qualified-name="Btn" id="part2-tail"><rect fill="#E2E2F0" height="30.4883" rx="2.5" ry="2.5" style="stroke:#181818;stroke-width:0.5;" width="84.9707" x="51.3652" y="573.6133"/><text fill="#000000" font-family="sans-serif" font-size="14" lengthAdjust="spacing" textLength="13.2822" x="58.3652" y="594.1484">1.</text><text fill="#000000" font-family="sans-serif" font-size="14" lengthAdjust="spacing" textLength="53.2588" x="76.0771" y="594.1484">btn-roll</text></g><g class="participant participant-head" data-entity-uid="part3" data-qualified-name="UI" id="part3-head"><rect fill="#E2E2F0" height="30.4883" rx="2.5" ry="2.5" style="stroke:#181818;stroke-width:0.5;" width="42.5605" x="163.2588" y="87.4883"/><text fill="#000000" font-family="sans-serif" font-size="14" lengthAdjust="spacing" textLength="28.5605" x="170.2588" y="108.0234">ui.js</text></g><g class="participant participant-tail" data-entity-uid="part3" data-qualified-name="UI" id="part3-tail"><rect fill="#E2E2F0" height="30.4883" rx="2.5" ry="2.5" style="stroke:#181818;stroke-width:0.5;" width="42.5605" x="163.2588" y="573.6133"/><text fill="#000000" font-family="sans-serif" font-size="14" lengthAdjust="spacing" textLength="28.5605" x="170.2588" y="594.1484">ui.js</text></g><g class="participant participant-head" data-entity-uid="part4" data-qualified-name="Game" id="part4-head"><rect fill="#E2E2F0" height="30.4883" rx="2.5" ry="2.5" style="stroke:#181818;stroke-width:0.5;" width="73.2334" x="428.0479" y="87.4883"/><text fill="#000000" font-family="sans-serif" font-size="14" lengthAdjust="spacing" textLength="59.2334" x="435.0479" y="108.0234">PigGame</text></g><g class="participant participant-tail" data-entity-uid="part4" data-qualified-name="Game" id="part4-tail"><rect fill="#E2E2F0" height="30.4883" rx="2.5" ry="2.5" style="stroke:#181818;stroke-width:0.5;" width="73.2334" x="428.0479" y="573.6133"/><text fill="#000000" font-family="sans-serif" font-size="14" lengthAdjust="spacing" textLength="59.2334" x="435.0479" y="594.1484">PigGame</text></g><g class="message" data-entity-1="part1" data-entity-2="part2" id="msg1"><polygon fill="#181818" points="81.8506,146.2871,91.8506,150.2871,81.8506,154.2871,85.8506,150.2871" style="stroke:#181818;stroke-width:1;"/><line style="stroke:#181818;stroke-width:1;" x1="23.1826" x2="87.8506" y1="150.2871" y2="150.2871"/><text fill="#000000" font-family="sans-serif" font-size="13" lengthAdjust="spacing" textLength="28.4312" x="30.1826" y="145.5449">click</text></g><g class="message" data-entity-1="part2" data-entity-2="part3" id="msg2"><polygon fill="#181818" points="172.5391,175.5977,182.5391,179.5977,172.5391,183.5977,176.5391,179.5977" style="stroke:#181818;stroke-width:1;"/><line style="stroke:#181818;stroke-width:1;" x1="93.8506" x2="178.5391" y1="179.5977" y2="179.5977"/><text fill="#000000" font-family="sans-serif" font-size="13" lengthAdjust="spacing" textLength="66.6885" x="100.8506" y="174.8555">click event</text></g><g class="message" data-entity-1="part3" data-entity-2="part4" id="msg3"><polygon fill="#181818" points="452.6646,204.9082,462.6646,208.9082,452.6646,212.9082,456.6646,208.9082" style="stroke:#181818;stroke-width:1;"/><line style="stroke:#181818;stroke-width:1;" x1="184.5391" x2="458.6646" y1="208.9082" y2="208.9082"/><text fill="#000000" font-family="sans-serif" font-size="13" lengthAdjust="spacing" textLength="29.2754" x="191.5391" y="204.166">roll()</text></g><path d="M153.2588,223.9082 L215.3975,223.9082 L215.3975,231.2188 L205.3975,241.2188 L153.2588,241.2188 L153.2588,223.9082" fill="#EEEEEE" style="stroke:#000000;stroke-width:1.5;"/><rect fill="none" height="262.084" style="stroke:#000000;stroke-width:1.5;" width="559.4229" x="153.2588" y="223.9082"/><text fill="#000000" font-family="sans-serif" font-size="13" font-weight="bold" lengthAdjust="spacing" textLength="17.1387" x="168.2588" y="237.4766">alt</text><text fill="#000000" font-family="sans-serif" font-size="11" font-weight="bold" lengthAdjust="spacing" textLength="54.5757" x="230.3975" y="236.543">[dice = 1]</text><g class="message" data-entity-1="part4" data-entity-2="part4" id="msg4"><line style="stroke:#181818;stroke-width:1;" x1="464.6646" x2="506.6646" y1="262.5293" y2="262.5293"/><line style="stroke:#181818;stroke-width:1;" x1="506.6646" x2="506.6646" y1="262.5293" y2="275.5293"/><line style="stroke:#181818;stroke-width:1;" x1="465.6646" x2="506.6646" y1="275.5293" y2="275.5293"/><polygon fill="#181818" points="475.6646,271.5293,465.6646,275.5293,475.6646,279.5293,471.6646,275.5293" style="stroke:#181818;stroke-width:1;"/><text fill="#000000" font-family="sans-serif" font-size="13" lengthAdjust="spacing" textLength="189.4141" x="471.6646" y="257.7871">roundScore = 0; switch player</text></g><g class="message" data-entity-1="part4" data-entity-2="part3" id="msg5"><polygon fill="#181818" points="195.5391,300.8398,185.5391,304.8398,195.5391,308.8398,191.5391,304.8398" style="stroke:#181818;stroke-width:1;"/><line style="stroke:#181818;stroke-width:1;stroke-dasharray:2,2;" x1="189.5391" x2="463.6646" y1="304.8398" y2="304.8398"/><text fill="#000000" font-family="sans-serif" font-size="13" lengthAdjust="spacing" textLength="207.2129" x="201.5391" y="300.0977">{ok:true, dice, event:'rolled-one'}</text></g><line style="stroke:#000000;stroke-width:1;stroke-dasharray:2,2;" x1="153.2588" x2="712.6816" y1="313.8398" y2="313.8398"/><text fill="#000000" font-family="sans-serif" font-size="11" font-weight="bold" lengthAdjust="spacing" textLength="151.3843" x="158.2588" y="324.4746">[dice = 6 and lastDice = 6]</text><g class="message" data-entity-1="part4" data-entity-2="part4" id="msg6"><line style="stroke:#181818;stroke-width:1;" x1="464.6646" x2="506.6646" y1="349.1055" y2="349.1055"/><line style="stroke:#181818;stroke-width:1;" x1="506.6646" x2="506.6646" y1="349.1055" y2="362.1055"/><line style="stroke:#181818;stroke-width:1;" x1="465.6646" x2="506.6646" y1="362.1055" y2="362.1055"/><polygon fill="#181818" points="475.6646,358.1055,465.6646,362.1055,475.6646,366.1055,471.6646,362.1055" style="stroke:#181818;stroke-width:1;"/><text fill="#000000" font-family="sans-serif" font-size="13" lengthAdjust="spacing" textLength="202.9282" x="471.6646" y="344.3633">scores[active] = 0; switch player</text></g><g class="message" data-entity-1="part4" data-entity-2="part3" id="msg7"><polygon fill="#181818" points="195.5391,387.416,185.5391,391.416,195.5391,395.416,191.5391,391.416" style="stroke:#181818;stroke-width:1;"/><line style="stroke:#181818;stroke-width:1;stroke-dasharray:2,2;" x1="189.5391" x2="463.6646" y1="391.416" y2="391.416"/><text fill="#000000" font-family="sans-serif" font-size="13" lengthAdjust="spacing" textLength="246.1685" x="201.5391" y="386.6738">{ok:true, dice, event:'double-six-wipe'}</text></g><line style="stroke:#000000;stroke-width:1;stroke-dasharray:2,2;" x1="153.2588" x2="712.6816" y1="400.416" y2="400.416"/><text fill="#000000" font-family="sans-serif" font-size="11" font-weight="bold" lengthAdjust="spacing" textLength="64.0396" x="158.2588" y="411.0508">[otherwise]</text><g class="message" data-entity-1="part4" data-entity-2="part4" id="msg8"><line style="stroke:#181818;stroke-width:1;" x1="464.6646" x2="506.6646" y1="435.6816" y2="435.6816"/><line style="stroke:#181818;stroke-width:1;" x1="506.6646" x2="506.6646" y1="435.6816" y2="448.6816"/><line style="stroke:#181818;stroke-width:1;" x1="465.6646" x2="506.6646" y1="448.6816" y2="448.6816"/><polygon fill="#181818" points="475.6646,444.6816,465.6646,448.6816,475.6646,452.6816,471.6646,448.6816" style="stroke:#181818;stroke-width:1;"/><text fill="#000000" font-family="sans-serif" font-size="13" lengthAdjust="spacing" textLength="229.0171" x="471.6646" y="430.9395">roundScore += dice; lastDice = dice</text></g><g class="message" data-entity-1="part4" data-entity-2="part3" id="msg9"><polygon fill="#181818" points="195.5391,473.9922,185.5391,477.9922,195.5391,481.9922,191.5391,477.9922" style="stroke:#181818;stroke-width:1;"/><line style="stroke:#181818;stroke-width:1;stroke-dasharray:2,2;" x1="189.5391" x2="463.6646" y1="477.9922" y2="477.9922"/><text fill="#000000" font-family="sans-serif" font-size="13" lengthAdjust="spacing" textLength="179.1182" x="201.5391" y="473.25">{ok:true, dice, event:'added'}</text></g><g class="message" data-entity-1="part4" data-entity-2="part3" id="msg10"><polygon fill="#181818" points="195.5391,510.3027,185.5391,514.3027,195.5391,518.3027,191.5391,514.3027" style="stroke:#181818;stroke-width:1;"/><line style="stroke:#181818;stroke-width:1;" x1="189.5391" x2="463.6646" y1="514.3027" y2="514.3027"/><text fill="#000000" font-family="sans-serif" font-size="13" lengthAdjust="spacing" textLength="181.8032" x="201.5391" y="509.5605">subscribe callback(snapshot)</text></g><g class="message" data-entity-1="part3" data-entity-2="part3" id="msg11"><line style="stroke:#181818;stroke-width:1;" x1="184.5391" x2="226.5391" y1="543.6133" y2="543.6133"/><line style="stroke:#181818;stroke-width:1;" x1="226.5391" x2="226.5391" y1="543.6133" y2="556.6133"/><line style="stroke:#181818;stroke-width:1;" x1="185.5391" x2="226.5391" y1="556.6133" y2="556.6133"/><polygon fill="#181818" points="195.5391,552.6133,185.5391,556.6133,195.5391,560.6133,191.5391,556.6133" style="stroke:#181818;stroke-width:1;"/><text fill="#000000" font-family="sans-serif" font-size="13" lengthAdjust="spacing" textLength="266.1255" x="191.5391" y="538.8711">update score/current panels + dice image</text></g><?plantuml-src fLBBIWCn5DtdAovrqPPsV6nSLEf21EbEA5s9Ypl9jHCdJSOyEee8VeHVw9UOP3hI8eZWxdBEoJdt4I-z8bZIKo3D2JxVFy0QfK18JeovMke6BMx0LIXCA_KQ7b2vI27tniBAaMLHuIMN3MeFWwFIwo9P300TN7bzI0Tv_EWojLeSChToVOCRobmg64lcK5mc4vW1LvBNBDKHMYrw16XBshC8H3YzYqIA7uqPAf_dW3cSCUZ8VL7GOicDJVpf1RXMUbv1e_0bpjJB-wnNKy-y3JJDZjCkTJPCIIGAesdunYWkfWyy1zG253f_lGD-Tk1IkBkBcvHRklz75yA4Kb7Xv7FHokQx5UChigsCr_fj-CaycrtiDvkl_yTm5894YjI2zIbPxqBfk9Kb0KUbIkJro6biN6NyU7Ulh0kDG4_TDavui3RQGlmJSGQOTFkK6rpJ5m00?></g></svg>